<mxfile host="65bd71144e">
    <diagram name="State Diagram" id="0">
        <mxGraphModel dx="654" dy="496" grid="1" gridSize="10" guides="1" tooltips="1" connect="1" arrows="1" fold="1" page="1" pageScale="1" pageWidth="827" pageHeight="1169" math="0" shadow="0">
            <root>
                <mxCell id="0"/>
                <mxCell id="1" parent="0" type="layer"/>
                <mxCell id="geschlossen" value="geschlossen" style="rounded=0;whiteSpace=wrap;html=1;" parent="1" vertex="1">
                    <mxGeometry x="312" y="210" width="100" height="60" as="geometry"/>
                </mxCell>
                <mxCell id="offen" value="offen" style="rounded=0;whiteSpace=wrap;html=1;" parent="1" vertex="1">
                    <mxGeometry x="560" y="210" width="100" height="60" as="geometry"/>
                </mxCell>
                <mxCell id="geschlossen_to_offen" value="open / on_open" style="edgeStyle=orthogonalEdgeStyle;rounded=0;orthogonalLoop=1;exitX=1;exitY=0.75;exitDx=0;exitDy=0;" parent="1" edge="1">
                    <mxGeometry x="-0.0813" relative="1" as="geometry">
                        <mxPoint x="412" y="223.9999999999999" as="sourcePoint"/>
                        <mxPoint x="560" y="223.9999999999999" as="targetPoint"/>
                        <Array as="points">
                            <mxPoint x="560" y="224"/>
                        </Array>
                        <mxPoint as="offset"/>
                    </mxGeometry>
                </mxCell>
                <mxCell id="offen_to_geschlossen" value="close / on_close" style="edgeStyle=orthogonalEdgeStyle;rounded=0;orthogonalLoop=1;entryX=1;entryY=0.25;entryDx=0;entryDy=0;exitX=0;exitY=0.25;exitDx=0;exitDy=0;" parent="1" edge="1">
                    <mxGeometry relative="1" as="geometry">
                        <mxPoint x="560" y="253.9999999999999" as="sourcePoint"/>
                        <mxPoint x="412" y="253.9999999999999" as="targetPoint"/>
                        <Array as="points">
                            <mxPoint x="540" y="254"/>
                            <mxPoint x="540" y="254"/>
                        </Array>
                        <mxPoint as="offset"/>
                    </mxGeometry>
                </mxCell>
                <mxCell id="verschlossen" value="verschlossen" style="rounded=0;whiteSpace=wrap;html=1;" parent="1" vertex="1">
                    <mxGeometry x="50" y="210" width="100" height="60" as="geometry"/>
                </mxCell>
                <mxCell id="geschlossen_to_verschlossen" value="lock / on_lock" style="edgeStyle=orthogonalEdgeStyle;rounded=0;orthogonalLoop=1;entryX=1;entryY=0.75;entryDx=0;entryDy=0;exitX=0;exitY=0.75;exitDx=0;exitDy=0;" parent="1" source="geschlossen" target="verschlossen" edge="1">
                    <mxGeometry x="-0.0909" relative="1" as="geometry">
                        <mxPoint x="310" y="210" as="sourcePoint"/>
                        <Array as="points">
                            <mxPoint x="230" y="255"/>
                            <mxPoint x="230" y="255"/>
                        </Array>
                        <mxPoint as="offset"/>
                    </mxGeometry>
                </mxCell>
                <mxCell id="verschlossen_to_geschlossen" value="unlock / on_unlock" style="edgeStyle=orthogonalEdgeStyle;rounded=0;orthogonalLoop=1;exitX=1;exitY=0.25;exitDx=0;exitDy=0;entryX=0;entryY=0.25;entryDx=0;entryDy=0;" parent="1" target="geschlossen" edge="1">
                    <mxGeometry x="0.0122" y="-1" relative="1" as="geometry">
                        <mxPoint x="150" y="227" as="sourcePoint"/>
                        <mxPoint x="260" y="227" as="targetPoint"/>
                        <mxPoint x="-1" y="-1" as="offset"/>
                    </mxGeometry>
                </mxCell>
            </root>
        </mxGraphModel>
    </diagram>
</mxfile>